PathFileType	4	(X/Y/Z)	 2.2Hz3min.trc
DataRate	CameraRate	NumFrames	NumMarkers	Units	OrigDataRate	OrigDataStartFrame	OrigNumFrames
200	200	8	35	m	200	626	1000
Frame#	Time	C7			LSH			RSH			MAN			RASI			LASI			HIPR			HIPL			RPSI			LPSI			COX			RTHI1			RTHI2			RTHI3			RTHI4			RSHA1			RSHA2			RSHA3			RSHA4			RHEEL			RMET5			RMET1			RTOE			LTHI1			LTHI2			LTHI3			LTHI4			LSHA1			LSHA2			LSHA3			LSHA4			LHEEL			LMET5			LMET1			LTOE			
		X1	Y1	Z1	X2	Y2	Z2	X3	Y3	Z3	X4	Y4	Z4	X5	Y5	Z5	X6	Y6	Z6	X7	Y7	Z7	X8	Y8	Z8	X9	Y9	Z9	X10	Y10	Z10	X11	Y11	Z11	X12	Y12	Z12	X13	Y13	Z13	X14	Y14	Z14	X15	Y15	Z15	X16	Y16	Z16	X17	Y17	Z17	X18	Y18	Z18	X19	Y19	Z19	X20	Y20	Z20	X21	Y21	Z21	X22	Y22	Z22	X23	Y23	Z23	X24	Y24	Z24	X25	Y25	Z25	X26	Y26	Z26	X27	Y27	Z27	X28	Y28	Z28	X29	Y29	Z29	X30	Y30	Z30	X31	Y31	Z31	X32	Y32	Z32	X33	Y33	Z33	X34	Y34	Z34	X35	Y35	Z35	
626	3.1300	-0.272862	1.403189	-0.526009	-0.220586	1.362671	-0.697201	-0.212086	1.367564	-0.351268	-0.162417	1.347423	-0.529151	-0.125906	0.950883	-0.438664	-0.130592	0.958868	-0.621436	-0.182214	1.011381	-0.393001	-0.178304	1.012209	-0.656468	-0.272150	0.996671	-0.463352	-0.273842	0.995896	-0.576511	-0.279167	1.004826	-0.520980	-0.230565	0.748873	-0.361128	-0.212474	0.692632	-0.350312	-0.151275	0.710359	-0.337989	-0.161596	0.770584	-0.346640	-0.262332	0.339249	-0.317176	-0.278164	0.301640	-0.318675	-0.226954	0.279230	-0.305113	-0.206810	0.316796	-0.306673	-0.342408	0.141187	-0.346825	-0.219558	0.037966	-0.289995	-0.190078	0.038928	-0.360733	-0.170760	0.030480	-0.349473	-0.210230	0.757726	-0.706868	-0.195681	0.698645	-0.715634	-0.131257	0.707414	-0.710191	-0.138396	0.766170	-0.701876	-0.278391	0.322932	-0.743107	-0.289856	0.279989	-0.741821	-0.238043	0.264325	-0.738913	-0.219930	0.300715	-0.740463	-0.362543	0.153217	-0.694591	-0.243097	0.041419	-0.755317	-0.212022	0.045700	-0.690843	-0.190586	0.032532	-0.700834	
627	3.1350	-0.272471	1.399700	-0.525914	-0.220280	1.358985	-0.697193	-0.211678	1.363875	-0.351126	-0.162144	1.343811	-0.529091	-0.126286	0.947429	-0.438631	-0.131230	0.955306	-0.621329	-0.182581	1.007851	-0.392910	-0.178984	1.008580	-0.656284	-0.272616	0.993127	-0.463162	-0.274440	0.992253	-0.576317	-0.279679	1.001238	-0.520777	-0.229560	0.745251	-0.360594	-0.211158	0.689107	-0.349957	-0.149875	0.706899	-0.338214	-0.160528	0.767151	-0.346839	-0.261365	0.336800	-0.316955	-0.277631	0.299281	-0.318478	-0.226589	0.276410	-0.305203	-0.206028	0.313804	-0.306852	-0.343885	0.139006	-0.346644	-0.220430	0.036563	-0.289774	-0.190951	0.037727	-0.361234	-0.171394	0.029658	-0.350170	-0.209685	0.753869	-0.706442	-0.194805	0.694858	-0.715137	-0.130439	0.703977	-0.709591	-0.137913	0.762691	-0.701333	-0.276865	0.320311	-0.743165	-0.288728	0.277475	-0.741801	-0.237097	0.261349	-0.738222	-0.218652	0.297572	-0.739739	-0.363258	0.151431	-0.694478	-0.244015	0.039073	-0.754659	-0.213274	0.043381	-0.689304	-0.191614	0.030606	-0.699022	
628	3.1400	-0.272071	1.395965	-0.525815	-0.219964	1.355054	-0.697176	-0.211236	1.359942	-0.350980	-0.161863	1.339941	-0.529027	-0.126659	0.943722	-0.438595	-0.131874	0.951498	-0.621227	-0.182960	1.004054	-0.392811	-0.179668	1.004724	-0.656085	-0.273103	0.989332	-0.462968	-0.275055	0.988373	-0.576135	-0.280212	0.997415	-0.520583	-0.228597	0.741326	-0.360117	-0.209874	0.685276	-0.349667	-0.148540	0.703192	-0.338500	-0.159527	0.763447	-0.347062	-0.260455	0.334218	-0.316759	-0.277191	0.296798	-0.318318	-0.226336	0.273432	-0.305342	-0.205329	0.310619	-0.307038	-0.345636	0.136566	-0.346368	-0.220983	0.035543	-0.289490	-0.191478	0.036930	-0.361563	-0.171674	0.029164	-0.350706	-0.209116	0.749737	-0.706033	-0.193879	0.690797	-0.714640	-0.129578	0.700289	-0.708943	-0.137413	0.758958	-0.700754	-0.275377	0.317509	-0.743180	-0.287664	0.274803	-0.741725	-0.236242	0.258176	-0.737482	-0.217441	0.294218	-0.738985	-0.364241	0.149390	-0.694218	-0.244839	0.037040	-0.754321	-0.214299	0.041536	-0.687962	-0.192289	0.029267	-0.697439	
629	3.1450	-0.271670	1.391980	-0.525709	-0.219638	1.350879	-0.697153	-0.210755	1.355770	-0.350826	-0.161569	1.335819	-0.528960	-0.127023	0.939773	-0.438550	-0.132525	0.947454	-0.621137	-0.183346	0.999995	-0.392707	-0.180361	1.000640	-0.655876	-0.273607	0.985290	-0.462774	-0.275692	0.984261	-0.575969	-0.280788	0.993354	-0.520403	-0.227693	0.737096	-0.359704	-0.208635	0.681149	-0.349436	-0.147281	0.699240	-0.338837	-0.158611	0.759474	-0.347300	-0.259600	0.331521	-0.316578	-0.276837	0.294233	-0.318166	-0.226194	0.270301	-0.305553	-0.204727	0.307272	-0.307247	-0.347620	0.133954	-0.345997	-0.221242	0.034860	-0.289179	-0.191778	0.036428	-0.361728	-0.171727	0.028896	-0.351073	-0.208519	0.745341	-0.705665	-0.192907	0.686470	-0.714143	-0.128679	0.696354	-0.708246	-0.136894	0.754978	-0.700136	-0.273965	0.314543	-0.743137	-0.286708	0.272002	-0.741572	-0.235526	0.254817	-0.736674	-0.216326	0.290664	-0.738194	-0.365534	0.147119	-0.693810	-0.245534	0.035450	-0.754354	-0.215030	0.040223	-0.686986	-0.192602	0.028408	-0.696202	
630	3.1500	-0.271270	1.387747	-0.525596	-0.219302	1.346460	-0.697125	-0.210232	1.351367	-0.350662	-0.161262	1.331452	-0.528892	-0.127376	0.935591	-0.438494	-0.133175	0.943188	-0.621062	-0.183740	0.995695	-0.392602	-0.181047	0.996334	-0.655685	-0.274134	0.980990	-0.462584	-0.276353	0.979912	-0.575816	-0.281404	0.989050	-0.520233	-0.226857	0.732565	-0.359364	-0.207442	0.676741	-0.349275	-0.146109	0.695056	-0.339209	-0.157797	0.755246	-0.347548	-0.258802	0.328722	-0.316429	-0.276559	0.291608	-0.318034	-0.226168	0.267037	-0.305842	-0.204221	0.303773	-0.307482	-0.349755	0.131216	-0.345617	-0.221335	0.034410	-0.288837	-0.192010	0.036077	-0.361802	-0.171712	0.028741	-0.351317	-0.207891	0.740692	-0.705346	-0.191890	0.681887	-0.713650	-0.127747	0.692173	-0.707501	-0.136359	0.750757	-0.699488	-0.272655	0.311454	-0.743008	-0.285904	0.269098	-0.741298	-0.234996	0.251305	-0.735786	-0.215350	0.286925	-0.737353	-0.367140	0.144671	-0.693291	-0.246064	0.034364	-0.754729	-0.215480	0.039378	-0.686478	-0.192629	0.027901	-0.695384	
631	3.1550	-0.270877	1.383269	-0.525477	-0.218954	1.341807	-0.697094	-0.209664	1.346741	-0.350486	-0.160942	1.326850	-0.528823	-0.127710	0.931202	-0.438430	-0.133825	0.938711	-0.621007	-0.184142	0.991157	-0.392499	-0.181741	0.991808	-0.655514	-0.274687	0.976435	-0.462384	-0.277049	0.975323	-0.575681	-0.282031	0.984504	-0.520063	-0.226099	0.727739	-0.359113	-0.206309	0.672033	-0.349191	-0.145034	0.690649	-0.339607	-0.157102	0.750768	-0.347791	-0.258050	0.325802	-0.316345	-0.276339	0.288892	-0.317950	-0.226233	0.263659	-0.306207	-0.203797	0.300125	-0.307750	-0.351963	0.128398	-0.345208	-0.221401	0.034085	-0.288456	-0.192287	0.035756	-0.361875	-0.171758	0.028608	-0.351514	-0.207231	0.735802	-0.705078	-0.190828	0.677063	-0.713163	-0.126788	0.687760	-0.706716	-0.135806	0.746303	-0.698827	-0.271477	0.308284	-0.742763	-0.285285	0.266125	-0.740871	-0.234686	0.247677	-0.734809	-0.214551	0.283026	-0.736445	-0.369003	0.142138	-0.692717	-0.246473	0.033713	-0.755289	-0.215766	0.038888	-0.686403	-0.192530	0.027645	-0.694990	
632	3.1600	-0.270490	1.378558	-0.525351	-0.218578	1.336943	-0.697061	-0.209038	1.341914	-0.350298	-0.160651	1.321988	-0.528752	-0.128033	0.926624	-0.438353	-0.134468	0.934042	-0.620979	-0.184563	0.986390	-0.392390	-0.182455	0.987061	-0.655367	-0.275265	0.971640	-0.462179	-0.277776	0.970494	-0.575557	-0.282678	0.979723	-0.519897	-0.225424	0.722620	-0.358964	-0.205238	0.667034	-0.349207	-0.144042	0.686007	-0.339986	-0.156528	0.746049	-0.348021	-0.257330	0.322756	-0.316339	-0.276160	0.286093	-0.317901	-0.226359	0.260139	-0.306634	-0.203343	0.296246	-0.308227	-0.354187	0.125529	-0.344719	-0.221539	0.033781	-0.288050	-0.192659	0.035407	-0.362001	-0.171920	0.028484	-0.351715	-0.206548	0.730677	-0.704860	-0.189734	0.672007	-0.712685	-0.125803	0.683127	-0.705916	-0.135239	0.741635	-0.698176	-0.270450	0.305081	-0.742363	-0.284872	0.263131	-0.740283	-0.234608	0.243969	-0.733750	-0.213938	0.279007	-0.735474	-0.371036	0.139596	-0.692121	-0.246865	0.033322	-0.755857	-0.216063	0.038584	-0.686559	-0.192508	0.027514	-0.694909	
633	3.1650	-0.270117	1.373633	-0.525219	-0.218195	1.331877	-0.697023	-0.208382	1.336889	-0.350094	-0.160361	1.316888	-0.528683	-0.128349	0.921870	-0.438262	-0.135099	0.929200	-0.620984	-0.185001	0.981412	-0.392280	-0.183192	0.982116	-0.655254	-0.275867	0.966606	-0.461974	-0.278532	0.965431	-0.575442	-0.283356	0.974697	-0.519732	-0.224831	0.717230	-0.358940	-0.204221	0.661774	-0.349332	-0.143139	0.681145	-0.340329	-0.156080	0.741108	-0.348219	-0.256632	0.319592	-0.316411	-0.275995	0.283202	-0.317883	-0.226520	0.256516	-0.307096	-0.202937	0.292258	-0.308798	-0.356397	0.122615	-0.344297	-0.221821	0.033434	-0.287627	-0.193127	0.035031	-0.362189	-0.172185	0.028364	-0.351930	-0.205845	0.725336	-0.704683	-0.188611	0.666733	-0.712215	-0.124795	0.678287	-0.705135	-0.134660	0.736759	-0.697558	-0.269573	0.301869	-0.741799	-0.284657	0.260157	-0.739538	-0.234743	0.240243	-0.732642	-0.213507	0.274939	-0.734450	-0.373154	0.137089	-0.691510	-0.247316	0.033050	-0.756319	-0.216458	0.038331	-0.686713	-0.192658	0.027411	-0.694956	
